<svg xmlns="http://www.w3.org/2000/svg" xmlns:xlink="http://www.w3.org/1999/xlink" viewBox="0 0 121.42 19.36"><defs><style>.cls-1{fill:url(#Dégradé_sans_nom_20);}.cls-2{fill:url(#Dégradé_sans_nom_13);}.cls-3{fill:url(#Dégradé_sans_nom_13-2);}.cls-4{fill:url(#Dégradé_sans_nom_13-3);}.cls-5{fill:url(#Dégradé_sans_nom_13-4);}.cls-6{fill:url(#Dégradé_sans_nom_13-5);}.cls-7{fill:url(#Dégradé_sans_nom_13-6);}.cls-8{fill:url(#Dégradé_sans_nom_13-7);}.cls-9{fill:url(#Dégradé_sans_nom_13-8);}.cls-10{fill:url(#Dégradé_sans_nom_13-9);}.cls-11{fill:url(#Dégradé_sans_nom_13-10);}.cls-12{fill:url(#Dégradé_sans_nom_13-11);}.cls-13{mask:url(#mask);}.cls-14{fill:#fff;}</style><linearGradient id="Dégradé_sans_nom_20" x1="65.62" y1="-11.67" x2="65.62" y2="15.28" gradientUnits="userSpaceOnUse"><stop offset="0" stop-color="#fff"/><stop offset="1" stop-color="#1d1d1b"/></linearGradient><linearGradient id="Dégradé_sans_nom_13" x1="5.14" y1="0.57" x2="5.14" y2="21.87" gradientUnits="userSpaceOnUse"><stop offset="0" stop-color="#34132e"/><stop offset="0.31" stop-color="#5f3757"/><stop offset="0.75" stop-color="#34132e"/><stop offset="1" stop-color="#896180"/></linearGradient><linearGradient id="Dégradé_sans_nom_13-2" x1="16.6" y1="0.57" x2="16.6" y2="21.87" xlink:href="#Dégradé_sans_nom_13"/><linearGradient id="Dégradé_sans_nom_13-3" x1="27.2" y1="0.57" x2="27.2" y2="21.87" xlink:href="#Dégradé_sans_nom_13"/><linearGradient id="Dégradé_sans_nom_13-4" x1="37.88" y1="0.57" x2="37.88" y2="21.87" xlink:href="#Dégradé_sans_nom_13"/><linearGradient id="Dégradé_sans_nom_13-5" x1="48.9" y1="0.57" x2="48.9" y2="21.87" xlink:href="#Dégradé_sans_nom_13"/><linearGradient id="Dégradé_sans_nom_13-6" x1="57.35" y1="0.57" x2="57.35" y2="21.87" xlink:href="#Dégradé_sans_nom_13"/><linearGradient id="Dégradé_sans_nom_13-7" x1="70.1" y1="0.57" x2="70.1" y2="21.87" xlink:href="#Dégradé_sans_nom_13"/><linearGradient id="Dégradé_sans_nom_13-8" x1="80.12" y1="0.57" x2="80.12" y2="21.87" xlink:href="#Dégradé_sans_nom_13"/><linearGradient id="Dégradé_sans_nom_13-9" x1="89.19" y1="0.57" x2="89.19" y2="21.87" xlink:href="#Dégradé_sans_nom_13"/><linearGradient id="Dégradé_sans_nom_13-10" x1="100.04" y1="0.57" x2="100.04" y2="21.87" xlink:href="#Dégradé_sans_nom_13"/><linearGradient id="Dégradé_sans_nom_13-11" x1="113.85" y1="0.57" x2="113.85" y2="21.87" xlink:href="#Dégradé_sans_nom_13"/><mask id="mask" x="-14.88" y="-14.36" width="161" height="28" maskUnits="userSpaceOnUse"><rect class="cls-1" x="-14.88" y="-14.36" width="161" height="28"/></mask></defs><g id="Calque_2" data-name="Calque 2"><g id="Calque_1-2" data-name="Calque 1"><path class="cls-2" d="M10.28,6.62H5.85V5.08a8,8,0,0,0-.12-1.83.56.56,0,0,0-.6-.37.56.56,0,0,0-.56.32,5,5,0,0,0-.15,1.62V13a4.84,4.84,0,0,0,.15,1.51.57.57,0,0,0,.59.36.66.66,0,0,0,.66-.41A5,5,0,0,0,6,12.84v-2H5.1V8.24h5.18v9.13H7.5l-.41-1.22A3,3,0,0,1,6,17.33a3.15,3.15,0,0,1-1.63.4,4.26,4.26,0,0,1-2.09-.54A4,4,0,0,1,.76,15.85a4.11,4.11,0,0,1-.63-1.68A18.9,18.9,0,0,1,0,11.54v-5A17.44,17.44,0,0,1,.26,2.94a3.7,3.7,0,0,1,1.51-2A5.3,5.3,0,0,1,5,0,6,6,0,0,1,8.22.8,3.8,3.8,0,0,1,9.89,2.7a10,10,0,0,1,.39,3.19Z"/><path class="cls-3" d="M21.47,8.32v3.42a15,15,0,0,1-.19,2.76,4,4,0,0,1-.81,1.64,3.78,3.78,0,0,1-1.59,1.12,6.46,6.46,0,0,1-2.24.36,7.81,7.81,0,0,1-2.38-.31,3.25,3.25,0,0,1-1.52-.93A3.65,3.65,0,0,1,12,14.86a11,11,0,0,1-.23-2.66V8.63a8.76,8.76,0,0,1,.42-3,3.46,3.46,0,0,1,1.51-1.75,5.34,5.34,0,0,1,2.79-.66,6.49,6.49,0,0,1,2.46.42,3.84,3.84,0,0,1,2.34,2.52A8.51,8.51,0,0,1,21.47,8.32ZM17.22,7.27a5,5,0,0,0-.11-1.35.6.6,0,0,0-1,0A4.08,4.08,0,0,0,16,7.27v6.3a3.81,3.81,0,0,0,.13,1.28.48.48,0,0,0,.49.3.49.49,0,0,0,.5-.27,3.57,3.57,0,0,0,.12-1.18Z"/><path class="cls-4" d="M31.53,7.88H27.77V7.13a4.17,4.17,0,0,0-.11-1.23c-.07-.17-.26-.25-.55-.25a.63.63,0,0,0-.54.23,1.18,1.18,0,0,0-.18.71,3.54,3.54,0,0,0,.09.94,1.5,1.5,0,0,0,.54.66,12.17,12.17,0,0,0,1.83,1,6.76,6.76,0,0,1,2.43,1.7,4,4,0,0,1,.58,2.32,5.91,5.91,0,0,1-.44,2.57,3,3,0,0,1-1.48,1.34,6.07,6.07,0,0,1-2.5.46,6.94,6.94,0,0,1-2.76-.5,3,3,0,0,1-1.59-1.37,6.14,6.14,0,0,1-.43-2.6v-.68h3.76v.89a4.42,4.42,0,0,0,.15,1.46.54.54,0,0,0,.56.33.76.76,0,0,0,.63-.22,1.68,1.68,0,0,0,.18-.95,2.12,2.12,0,0,0-.23-1.25,19.68,19.68,0,0,0-2.47-1.5A5.43,5.43,0,0,1,23,9.33a4.59,4.59,0,0,1-.41-2A5.19,5.19,0,0,1,23,4.83a2.79,2.79,0,0,1,1.5-1.22,6.38,6.38,0,0,1,2.45-.43,6.87,6.87,0,0,1,2.36.35,3.53,3.53,0,0,1,1.49.93,2.39,2.39,0,0,1,.63,1.07,8,8,0,0,1,.11,1.54Z"/><path class="cls-5" d="M37.31,3.43l-.07,1.23a3.85,3.85,0,0,1,1.25-1.12A3.13,3.13,0,0,1,40,3.18a2.76,2.76,0,0,1,1.71.53,2.15,2.15,0,0,1,.89,1.22,10.58,10.58,0,0,1,.18,2.35v5.88a11.24,11.24,0,0,1-.22,2.7,2.19,2.19,0,0,1-.93,1.28,3.13,3.13,0,0,1-3.14.11,3.91,3.91,0,0,1-1.23-1.09v3.2H33V3.43Zm1.21,4.05a6.46,6.46,0,0,0-.1-1.56c-.06-.18-.23-.27-.52-.27a.51.51,0,0,0-.54.31,5.67,5.67,0,0,0-.12,1.52v5.78a6,6,0,0,0,.12,1.58.53.53,0,0,0,.55.31c.27,0,.44-.09.51-.29a5.54,5.54,0,0,0,.1-1.4Z"/><path class="cls-6" d="M53.77,10.65H48.28v3a3.13,3.13,0,0,0,.14,1.22.52.52,0,0,0,.52.27.65.65,0,0,0,.65-.36,3.94,3.94,0,0,0,.16-1.4V11.55h4v1a9.26,9.26,0,0,1-.16,2,4.09,4.09,0,0,1-.76,1.48,3.76,3.76,0,0,1-1.52,1.18,5.92,5.92,0,0,1-2.31.39,6.69,6.69,0,0,1-2.37-.39,3.69,3.69,0,0,1-1.6-1.06,3.93,3.93,0,0,1-.8-1.49A10.09,10.09,0,0,1,44,12.31V8.24a6.86,6.86,0,0,1,.5-2.88,3.36,3.36,0,0,1,1.62-1.62,5.63,5.63,0,0,1,2.58-.56,5.83,5.83,0,0,1,3,.67,3.82,3.82,0,0,1,1.63,1.8,8.52,8.52,0,0,1,.46,3.15ZM49.52,8.38v-1A5,5,0,0,0,49.4,6a.44.44,0,0,0-.47-.31c-.29,0-.48.08-.55.26a5.71,5.71,0,0,0-.1,1.45v1Z"/><path class="cls-7" d="M59.53.36v17H55.16V.36Z"/><path class="cls-8" d="M65,.36h3.31a21.15,21.15,0,0,1,4.34.29,3.39,3.39,0,0,1,1.72,1,3.1,3.1,0,0,1,.73,1.5,22.18,22.18,0,0,1,.15,3.24v6A13.4,13.4,0,0,1,75,15.38a2.28,2.28,0,0,1-.75,1.21,3.22,3.22,0,0,1-1.32.61,12.55,12.55,0,0,1-2.38.17H65ZM69.4,3.27V14.46c.64,0,1-.13,1.17-.38A5.58,5.58,0,0,0,70.79,12V5.38a8.92,8.92,0,0,0-.07-1.48.71.71,0,0,0-.33-.48A2.25,2.25,0,0,0,69.4,3.27Z"/><path class="cls-9" d="M81,3.43l-.17,1.83A3.14,3.14,0,0,1,83.5,3.18v4.9a3.52,3.52,0,0,0-1.71.32,1.33,1.33,0,0,0-.68.87,16.65,16.65,0,0,0-.12,2.6v5.5H76.74V3.43Z"/><path class="cls-10" d="M94.06,10.65h-5.5v3a3.35,3.35,0,0,0,.14,1.22.52.52,0,0,0,.52.27.64.64,0,0,0,.65-.36,3.94,3.94,0,0,0,.16-1.4V11.55h4v1a9.15,9.15,0,0,1-.17,2,3.94,3.94,0,0,1-.76,1.48,3.69,3.69,0,0,1-1.52,1.18,5.9,5.9,0,0,1-2.3.39,6.71,6.71,0,0,1-2.38-.39,3.75,3.75,0,0,1-1.6-1.06,3.91,3.91,0,0,1-.79-1.49,9.58,9.58,0,0,1-.22-2.37V8.24a6.88,6.88,0,0,1,.49-2.88,3.36,3.36,0,0,1,1.62-1.62A5.63,5.63,0,0,1,89,3.18,5.8,5.8,0,0,1,92,3.85a3.77,3.77,0,0,1,1.63,1.8,8.49,8.49,0,0,1,.47,3.15ZM89.8,8.38v-1A5.58,5.58,0,0,0,89.69,6a.46.46,0,0,0-.48-.31c-.29,0-.47.08-.54.26a5.52,5.52,0,0,0-.11,1.45v1Z"/><path class="cls-11" d="M99.24,8.83h-4V7.89a6.53,6.53,0,0,1,.38-2.49,3.48,3.48,0,0,1,1.49-1.55,7,7,0,0,1,6.17.09,3,3,0,0,1,1.32,1.87,30.26,30.26,0,0,1,.22,4.56v7H100.7V16.13a2.77,2.77,0,0,1-1,1.12,2.73,2.73,0,0,1-1.46.37,3.66,3.66,0,0,1-2-.62c-.62-.42-.93-1.33-.93-2.74V13.12a3.36,3.36,0,0,1,.5-2.14A6.82,6.82,0,0,1,98.2,9.66a7.17,7.17,0,0,0,2.23-1.1,2.91,2.91,0,0,0,.15-1.16A3.85,3.85,0,0,0,100.42,6a.56.56,0,0,0-.54-.33q-.43,0-.54.27a5.82,5.82,0,0,0-.1,1.45Zm1.34,1.91A3.14,3.14,0,0,0,99.4,12a5,5,0,0,0-.16,1.45,4.12,4.12,0,0,0,.14,1.4.54.54,0,0,0,.56.31.52.52,0,0,0,.52-.24,4.06,4.06,0,0,0,.12-1.3Z"/><path class="cls-12" d="M110.48,3.43l-.07,1.32a3.39,3.39,0,0,1,1.17-1.18,3.11,3.11,0,0,1,1.56-.39,3,3,0,0,1,2.68,1.57A3.76,3.76,0,0,1,117,3.57a2.88,2.88,0,0,1,1.49-.39,2.92,2.92,0,0,1,1.79.52A2.36,2.36,0,0,1,121.22,5a11,11,0,0,1,.2,2.47v9.91H117.3V8.28a11.48,11.48,0,0,0-.12-2.21.53.53,0,0,0-.56-.42.56.56,0,0,0-.59.42,10.3,10.3,0,0,0-.13,2.21v9.09h-4.12V8.51a15.87,15.87,0,0,0-.1-2.46.5.5,0,0,0-.55-.4.63.63,0,0,0-.48.21.77.77,0,0,0-.22.53c0,.2,0,.64,0,1.31v9.67h-4.12V3.43Z"/><g class="cls-13"><path class="cls-14" d="M5.1,8.24v2.58H6v.28q2.08-.27,4.29-.48V8.24ZM9.89,2.69A3.78,3.78,0,0,0,8.22.8,6,6,0,0,0,5,0,5.3,5.3,0,0,0,1.77.92a3.66,3.66,0,0,0-1.51,2A17.39,17.39,0,0,0,0,6.48v5.46c1.43-.23,2.9-.44,4.42-.64V4.81a5,5,0,0,1,.15-1.62.55.55,0,0,1,.56-.31.56.56,0,0,1,.6.37,7.94,7.94,0,0,1,.12,1.82V6.62h4.43V5.88A10.07,10.07,0,0,0,9.89,2.69Z"/><path class="cls-14" d="M21.26,6.11a3.94,3.94,0,0,0-.76-1.4A3.87,3.87,0,0,0,18.92,3.6a6.3,6.3,0,0,0-2.46-.43,5.34,5.34,0,0,0-2.79.66,3.52,3.52,0,0,0-1.51,1.76,8.76,8.76,0,0,0-.42,3v1.85c1.38-.13,2.79-.25,4.24-.35V7.27a4.08,4.08,0,0,1,.13-1.35.59.59,0,0,1,1,0,5,5,0,0,1,.11,1.35v2.78c1.39-.1,2.8-.18,4.25-.25V8.32A8.6,8.6,0,0,0,21.26,6.11Z"/><path class="cls-14" d="M31.53,7.88V7.07a8,8,0,0,0-.11-1.54,2.47,2.47,0,0,0-.63-1.08,3.73,3.73,0,0,0-1.49-.93,7.12,7.12,0,0,0-2.36-.35,6.58,6.58,0,0,0-2.45.43A2.85,2.85,0,0,0,23,4.83a5.19,5.19,0,0,0-.44,2.46,4.54,4.54,0,0,0,.41,2,1.81,1.81,0,0,0,.26.4q3-.13,6.22-.19c-.18-.1-.38-.21-.59-.31a11.33,11.33,0,0,1-1.83-1,1.44,1.44,0,0,1-.54-.65,3.54,3.54,0,0,1-.09-.94,1.16,1.16,0,0,1,.18-.71.63.63,0,0,1,.54-.24c.29,0,.48.09.55.26a4.14,4.14,0,0,1,.11,1.22v.76Z"/><path class="cls-14" d="M42.58,4.93a2.2,2.2,0,0,0-.89-1.23A2.83,2.83,0,0,0,40,3.17a3.13,3.13,0,0,0-1.49.37,3.85,3.85,0,0,0-1.25,1.12l.07-1.23H33V9.49h4.25v-2A5.67,5.67,0,0,1,37.36,6a.52.52,0,0,1,.54-.32c.29,0,.46.09.52.27a6.63,6.63,0,0,1,.1,1.57v2c1.39,0,2.8,0,4.24.07V7.28A10.52,10.52,0,0,0,42.58,4.93Z"/><path class="cls-14" d="M53.31,5.65a3.77,3.77,0,0,0-1.63-1.8,5.83,5.83,0,0,0-3-.68,5.76,5.76,0,0,0-2.58.56,3.44,3.44,0,0,0-1.62,1.62A7,7,0,0,0,44,8.24V9.6q4.69.12,9.74.39V8.79A8.42,8.42,0,0,0,53.31,5.65ZM49.52,8.37H48.28v-1a5.67,5.67,0,0,1,.1-1.44c.07-.18.26-.27.55-.27A.45.45,0,0,1,49.4,6a4.9,4.9,0,0,1,.12,1.39Z"/><path class="cls-14" d="M55.16.36v9.7c1.43.08,2.89.16,4.37.26V.36Z"/><path class="cls-14" d="M75.07,3.12a3.1,3.1,0,0,0-.73-1.5,3.39,3.39,0,0,0-1.72-1A20.43,20.43,0,0,0,68.28.36H65V10.7c1.5.11,3,.2,4.43.29V3.27a2.25,2.25,0,0,1,1,.15.71.71,0,0,1,.33.48,8.92,8.92,0,0,1,.07,1.48v5.68c1.5.08,3,.15,4.43.2V6.36A22.09,22.09,0,0,0,75.07,3.12Z"/><path class="cls-14" d="M80.82,5.26,81,3.43H76.74v7.88c1.43,0,2.85.08,4.25.1a14,14,0,0,1,.12-2.14,1.35,1.35,0,0,1,.68-.88,3.54,3.54,0,0,1,1.71-.31V3.17A3.16,3.16,0,0,0,80.82,5.26Z"/><path class="cls-14" d="M93.59,5.65A3.72,3.72,0,0,0,92,3.85a6.49,6.49,0,0,0-5.53-.12,3.44,3.44,0,0,0-1.62,1.62,7,7,0,0,0-.49,2.89v3.2c1.43,0,2.85,0,4.24,0v-.77h5.5V8.79A8.4,8.4,0,0,0,93.59,5.65ZM89.8,8.37H88.56v-1a5.47,5.47,0,0,1,.11-1.44q.1-.27.54-.27a.47.47,0,0,1,.48.32,5.48,5.48,0,0,1,.11,1.39Z"/><path class="cls-14" d="M104.61,5.8a3,3,0,0,0-1.32-1.87,5.74,5.74,0,0,0-3.24-.76,5.65,5.65,0,0,0-2.93.68,3.47,3.47,0,0,0-1.49,1.54,6.59,6.59,0,0,0-.38,2.5v.94h4V7.37a5.82,5.82,0,0,1,.1-1.45c.07-.19.25-.28.54-.28a.56.56,0,0,1,.54.33,3.92,3.92,0,0,1,.16,1.43,2.85,2.85,0,0,1-.15,1.15A6.83,6.83,0,0,1,98.2,9.66,6.82,6.82,0,0,0,95.75,11a1,1,0,0,0-.14.2c1.61-.07,3.19-.16,4.75-.28l.22-.16v.15c1.44-.1,2.86-.22,4.25-.35v-.17A30.42,30.42,0,0,0,104.61,5.8Z"/><path class="cls-14" d="M121.22,5a2.36,2.36,0,0,0-.91-1.29,2.92,2.92,0,0,0-1.79-.53,2.8,2.8,0,0,0-1.49.4,3.76,3.76,0,0,0-1.21,1.18,3.12,3.12,0,0,0-4.24-1.18,3.39,3.39,0,0,0-1.17,1.18l.07-1.32h-4.19v7c1.4-.14,2.77-.3,4.12-.46V7.7c0-.67,0-1.11,0-1.32a.77.77,0,0,1,.22-.52.61.61,0,0,1,.48-.22.5.5,0,0,1,.55.41,15.78,15.78,0,0,1,.1,2.46V9.76c1.4-.18,2.77-.38,4.12-.59V8.28A10.42,10.42,0,0,1,116,6.06a.56.56,0,0,1,.59-.42.53.53,0,0,1,.56.43,11.48,11.48,0,0,1,.12,2.21v.66c1.4-.23,2.78-.47,4.12-.73V7.46A10.92,10.92,0,0,0,121.22,5Z"/><path class="cls-14" d="M10.28,5.88v.74H5.85V5.07a7.94,7.94,0,0,0-.12-1.82.56.56,0,0,0-.6-.37.55.55,0,0,0-.56.31,5,5,0,0,0-.15,1.62V11.3c-1.52.2-3,.41-4.42.64V6.48A17.39,17.39,0,0,1,.26,2.94a3.66,3.66,0,0,1,1.51-2A5.3,5.3,0,0,1,5,0,6,6,0,0,1,8.22.8,3.78,3.78,0,0,1,9.89,2.69,10.07,10.07,0,0,1,10.28,5.88Z"/><path class="cls-14" d="M10.28,8.24v2.38q-2.2.21-4.29.48v-.28H5.1V8.24Z"/><path class="cls-14" d="M21.47,8.32V9.8c-1.45.07-2.86.15-4.25.25V7.27a5,5,0,0,0-.11-1.35.59.59,0,0,0-1,0A4.08,4.08,0,0,0,16,7.27v2.86c-1.45.1-2.86.22-4.24.35V8.63a8.76,8.76,0,0,1,.42-3,3.52,3.52,0,0,1,1.51-1.76,5.34,5.34,0,0,1,2.79-.66,6.3,6.3,0,0,1,2.46.43A3.87,3.87,0,0,1,20.5,4.71a3.94,3.94,0,0,1,.76,1.4A8.6,8.6,0,0,1,21.47,8.32Z"/><path class="cls-14" d="M27.77,7.88V7.12a4.14,4.14,0,0,0-.11-1.22c-.07-.17-.26-.26-.55-.26a.63.63,0,0,0-.54.24,1.16,1.16,0,0,0-.18.71,3.54,3.54,0,0,0,.09.94,1.44,1.44,0,0,0,.54.65,11.33,11.33,0,0,0,1.83,1c.21.1.41.21.59.31q-3.21.06-6.22.19a1.81,1.81,0,0,1-.26-.4,4.54,4.54,0,0,1-.41-2A5.19,5.19,0,0,1,23,4.83a2.85,2.85,0,0,1,1.5-1.23,6.58,6.58,0,0,1,2.45-.43,7.12,7.12,0,0,1,2.36.35,3.73,3.73,0,0,1,1.49.93,2.47,2.47,0,0,1,.63,1.08,8,8,0,0,1,.11,1.54v.81Z"/><path class="cls-14" d="M42.76,7.28V9.57c-1.44,0-2.85-.06-4.24-.07v-2a6.63,6.63,0,0,0-.1-1.57c-.06-.18-.23-.27-.52-.27a.52.52,0,0,0-.54.32,5.67,5.67,0,0,0-.12,1.52v2H33V3.43h4.32l-.07,1.23a3.85,3.85,0,0,1,1.25-1.12A3.13,3.13,0,0,1,40,3.17a2.83,2.83,0,0,1,1.71.53,2.2,2.2,0,0,1,.89,1.23A10.52,10.52,0,0,1,42.76,7.28Z"/><path class="cls-14" d="M53.31,5.65a3.77,3.77,0,0,0-1.63-1.8,5.83,5.83,0,0,0-3-.68,5.76,5.76,0,0,0-2.58.56,3.44,3.44,0,0,0-1.62,1.62A7,7,0,0,0,44,8.24V9.6q4.69.12,9.74.39V8.79A8.42,8.42,0,0,0,53.31,5.65ZM49.52,8.37H48.28v-1a5.67,5.67,0,0,1,.1-1.44c.07-.18.26-.27.55-.27A.45.45,0,0,1,49.4,6a4.9,4.9,0,0,1,.12,1.39Z"/><path class="cls-14" d="M59.53.36v10c-1.48-.1-2.94-.18-4.37-.26V.36Z"/><path class="cls-14" d="M75.22,6.36v4.9c-1.46,0-2.93-.12-4.43-.2V5.38a8.92,8.92,0,0,0-.07-1.48.71.71,0,0,0-.33-.48,2.25,2.25,0,0,0-1-.15V11c-1.46-.09-2.93-.18-4.43-.29V.36h3.31a20.43,20.43,0,0,1,4.34.29,3.39,3.39,0,0,1,1.72,1,3.1,3.1,0,0,1,.73,1.5A22.09,22.09,0,0,1,75.22,6.36Z"/><path class="cls-14" d="M83.5,3.17V8.08a3.54,3.54,0,0,0-1.71.31,1.35,1.35,0,0,0-.68.88A14,14,0,0,0,81,11.41c-1.4,0-2.82-.05-4.25-.1V3.43H81l-.17,1.83A3.16,3.16,0,0,1,83.5,3.17Z"/><path class="cls-14" d="M93.59,5.65A3.72,3.72,0,0,0,92,3.85a6.49,6.49,0,0,0-5.53-.12,3.44,3.44,0,0,0-1.62,1.62,7,7,0,0,0-.49,2.89v3.2c1.43,0,2.85,0,4.24,0v-.77h5.5V8.79A8.4,8.4,0,0,0,93.59,5.65ZM89.8,8.37H88.56v-1a5.47,5.47,0,0,1,.11-1.44q.1-.27.54-.27a.47.47,0,0,1,.48.32,5.48,5.48,0,0,1,.11,1.39Z"/><path class="cls-14" d="M104.83,10.37v.17c-1.39.13-2.81.25-4.25.35h-.22c-1.56.12-3.14.21-4.75.28a1,1,0,0,1,.14-.2A6.82,6.82,0,0,1,98.2,9.66a6.83,6.83,0,0,0,2.23-1.11,2.85,2.85,0,0,0,.15-1.15A3.92,3.92,0,0,0,100.42,6a.56.56,0,0,0-.54-.33c-.29,0-.47.09-.54.28a5.82,5.82,0,0,0-.1,1.45V8.83h-4V7.89a6.59,6.59,0,0,1,.38-2.5,3.47,3.47,0,0,1,1.49-1.54,5.65,5.65,0,0,1,2.93-.68,5.74,5.74,0,0,1,3.24.76,3,3,0,0,1,1.32,1.87A30.42,30.42,0,0,1,104.83,10.37Z"/></g></g></g></svg>